<svg width="1068" height="301" viewBox="0 0 1068 301" fill="none" xmlns="http://www.w3.org/2000/svg">
<path d="M178.113 78.2608C187.289 76.5811 195.631 76.9633 203.695 81.7881L206.883 83.6006C214.147 89.2505 219.237 96.6117 220.695 105.788C221.608 117.22 219.17 126.937 211.695 135.788C205.22 142.164 196.61 145.939 187.508 146.163C178.767 145.749 170.641 143.275 164.008 137.413L161.695 134.788L159.07 132.038C152.522 123.796 152.564 112.845 153.695 102.788C154.561 99.3902 155.806 96.7267 157.695 93.7881L158.758 91.9092C163.055 85.0005 170.393 80.5188 178.113 78.2608Z" fill="#45C380"/>
<path fill-rule="evenodd" clip-rule="evenodd" d="M46.57 42.7569C99.6061 -12.9305 188.611 -13.2202 245.293 36.0459C247.787 38.2657 250.248 40.5161 252.695 42.7881L254.492 44.4209C272.276 61.2734 284.009 83.9687 291.07 107.163C291.428 108.338 291.427 108.339 291.793 109.537C295.272 121.582 296.067 133.276 296.065 145.74C296.07 148.323 296.106 150.903 296.144 153.485C296.309 177.778 289.323 200.59 277.695 221.788L276.168 224.585C269.5 236.184 260.87 246.144 251.695 255.788L249.816 257.862C227.577 281.594 192.262 298.606 159.665 299.909C144.779 300.337 130.25 300.13 115.695 296.788L113.604 296.316C96.8051 292.352 79.6671 284.923 65.695 274.788L62.8708 272.815C49.5543 263.224 38.2164 252.153 28.695 238.788L27.5134 237.147C4.66307 204.934 -4.16458 164.563 1.82004 125.601C4.24905 111.653 9.34655 98.3927 15.695 85.7881L17.4294 82.2178C24.3877 68.2574 33.9347 56.0376 44.695 44.7881L46.57 42.7569ZM140.726 192.72C107.888 174.787 64.5193 164.925 27.695 174.788C28.0589 180.83 28.9159 186.329 30.864 192.066C31.1677 192.907 31.4628 193.723 31.7575 194.538C34.4139 201.957 37.4247 208.759 41.5466 215.495L43.695 218.788C44.836 220.56 45.9854 222.325 47.1579 224.076C65.6273 250.83 95.0458 269.141 126.831 275.194C158.382 280.473 190.365 273.975 216.695 255.788C213.143 249.97 209.246 244.98 204.429 240.156C203.269 239.024 203.269 239.023 202.133 237.913C195.498 231.378 188.818 224.966 181.502 219.196C180.589 218.485 180.589 218.485 179.695 217.788C169.275 209.621 158.738 202.191 147.008 196.022C144.905 194.936 142.806 193.848 140.726 192.72ZM150.133 23.3506C114.055 23.3342 81.9106 38.2606 57.695 64.7881C36.7759 88.0971 23.0158 120.069 24.695 151.788C27.3757 151.865 29.8497 151.764 32.5056 151.361C39.5881 150.086 46.4475 149.514 53.6413 149.459C55.5932 149.468 55.594 149.467 57.5075 149.476C111.877 149.624 159.674 171.192 201.163 205.518C201.684 205.95 202.19 206.369 202.695 206.788C212.625 214.921 221.929 224.14 229.945 234.163C231.152 235.738 232.389 237.293 233.695 238.788H235.695C252.045 223.495 263.498 202.269 268.945 180.726C276.684 148.074 273.455 113.552 255.77 84.5147C255.405 83.9278 255.05 83.3578 254.695 82.7881C239.551 58.2817 215.955 39.4413 188.976 29.5987C188.201 29.323 187.448 29.0557 186.695 28.7881C175.312 24.6922 164.312 23.3807 152.264 23.3477C151.54 23.3485 150.836 23.3499 150.133 23.3506Z" fill="#45C380"/>
<path fill-rule="evenodd" clip-rule="evenodd" d="M990.695 122.788L997.695 115.788C1006.98 108.473 1017.91 108.608 1029.2 109.481C1040.45 110.865 1049.93 117.941 1057.03 126.468C1067.24 140.7 1069.24 156.552 1067.26 173.495C1064.69 187.749 1057.93 200.668 1046.35 209.593C1034.71 217.178 1021.36 219.581 1007.69 217.788C1000.02 215.814 994.323 212.288 988.695 206.788L987.695 215.788H962.695V68.7881H989.695L990.695 122.788ZM1027.92 135.413C1019.67 130.398 1006.45 131.166 998.695 136.788C991.871 143.612 989.195 151.791 989.099 161.354L989.132 164.288C989.084 166.236 989.062 168.184 989.066 170.132C989.499 177.627 992.569 184.054 998.007 189.226C1004.18 193.914 1010.23 195.395 1017.96 195.128C1025.25 194.223 1030.62 190.971 1035.19 185.241C1040.46 176.658 1041.86 166.674 1040.69 156.788C1038.82 147.715 1035.26 141.106 1027.92 135.413Z" fill="#45C380"/>
<path d="M422.695 68.7881C422.74 82.2539 422.777 95.7197 422.798 109.186C422.809 115.439 422.823 121.693 422.846 127.946C422.868 133.989 422.879 140.032 422.884 146.075C422.888 148.373 422.896 150.67 422.907 152.968C423.089 193.174 423.089 193.174 408.695 208.788C397.783 217.807 383.699 218.911 370.084 218.047C360.281 216.985 350.137 213.38 342.695 206.788L341.695 204.788C343.142 201.428 345.101 198.32 346.945 195.163L348.472 192.444L349.96 189.874C350.412 189.091 350.864 188.308 351.329 187.501C352.005 186.653 352.005 186.653 352.695 185.788C356.275 185.788 357.205 186.62 360.07 188.663C366.585 193.298 371.78 194.536 379.695 193.788C385.365 192.705 388.528 190.535 391.785 185.8C394.401 180.018 393.864 173.316 393.9 167.102C393.91 166.038 393.92 164.973 393.93 163.877C393.962 160.371 393.986 156.865 394.011 153.358C394.032 150.923 394.052 148.488 394.074 146.053C394.129 139.651 394.179 133.249 394.227 126.848C394.277 120.312 394.333 113.777 394.388 107.241C394.496 94.4235 394.597 81.6058 394.695 68.7881H422.695Z" fill="#45C380"/>
<path d="M687.695 110.788H714.695V132.788H687.695C687.769 139.942 687.852 147.095 687.958 154.248C687.991 156.681 688.019 159.113 688.042 161.546C688.075 165.046 688.127 168.546 688.183 172.046C688.189 173.13 688.196 174.216 688.203 175.333C688.31 180.86 688.497 185.058 691.695 189.788C695.481 192.879 698.45 193.149 703.257 193.038L706.636 192.991C709.885 192.866 709.885 192.866 713.695 191.788V215.788C702.335 218.628 686.621 218.983 676.042 213.468C669.213 208.582 664.89 202.85 662.695 194.788C662.516 194.152 662.339 193.515 662.155 192.859C660.525 186.389 660.437 180.181 660.5 173.534C660.502 172.393 660.505 171.251 660.508 170.075C660.519 166.459 660.544 162.842 660.57 159.226C660.58 156.761 660.589 154.297 660.597 151.833C660.619 145.818 660.653 139.803 660.695 133.788L657.449 133.823C656.052 133.833 654.654 133.842 653.257 133.851L651.115 133.876C649.308 133.885 647.501 133.84 645.695 133.788C644.695 132.788 644.695 132.788 644.582 130.655C644.587 129.739 644.592 128.822 644.597 127.878L644.607 124.88L644.632 121.726L644.646 118.56C644.658 115.969 644.676 113.379 644.695 110.788H661.695V88.7881C665.651 86.9502 669.61 85.1176 673.57 83.2881L676.988 81.6982L680.25 80.1943C681.245 79.7335 682.24 79.2727 683.265 78.7979C685.695 77.7883 685.695 77.7881 687.695 77.7881V110.788Z" fill="#45C380"/>
<path d="M579.007 110.827C593.947 105.862 613.184 107.442 626.257 116.601C631.775 121.358 636.242 125.526 637.695 132.788L618.695 142.788L614.695 137.788C608.781 132.143 603.306 129.67 595.07 129.413C590.618 129.537 587.446 130.221 583.695 132.788C582.13 135.917 581.998 139.399 582.695 142.788C585.595 146.568 588.591 147.717 593.07 149.101C593.705 149.304 594.341 149.507 594.996 149.716C599.079 151.014 603.186 152.231 607.292 153.452C608.741 153.892 608.741 153.893 610.219 154.342C612.118 154.918 614.022 155.48 615.929 156.025C623.5 158.328 630.612 161.808 634.632 168.976L635.785 170.956C639.217 177.865 638.925 186.951 636.601 194.198C631.737 204.431 625.297 210.727 614.695 214.788C608.042 216.858 601.826 217.154 594.882 217.163L591.802 217.237C579.392 217.285 567.772 212.554 558.742 203.921C556.249 201.101 554.055 198.327 552.695 194.788C552.988 192.235 553.314 191.118 555.277 189.416C555.942 189.018 556.607 188.62 557.292 188.21L559.47 186.882L561.757 185.538L564.056 184.147C565.929 183.016 567.809 181.897 569.695 180.788C572.186 183.258 574.63 185.714 576.945 188.351C583.208 193.902 589.188 195.178 597.382 195.351C598.469 195.391 598.469 195.391 599.579 195.432C603.478 195.404 606.031 194.937 609.171 192.538C611.716 189.765 612.503 188.892 612.382 185.226L612.394 182.972C611.352 179.718 609.48 178.721 606.695 176.788C604.217 175.806 601.844 174.967 599.304 174.202C597.858 173.741 596.411 173.28 594.964 172.819C592.71 172.115 590.455 171.416 588.199 170.721C576.621 167.13 565.703 163.427 558.695 152.788C555.452 146.192 555.517 137.603 557.632 130.601C561.71 121.522 569.988 114.575 579.007 110.827Z" fill="#45C380"/>
<path d="M872.708 117.78C872.727 124.346 872.769 130.912 872.827 137.478C872.861 141.455 872.886 145.431 872.89 149.408C872.894 153.254 872.923 157.098 872.968 160.943C872.981 162.403 872.986 163.863 872.981 165.322C872.96 174.028 873.457 181.484 878.695 188.788C884.261 193.268 890.81 193.347 897.695 192.788C902.742 191.756 906.56 189.906 909.676 185.616C914.248 177.41 914.162 168.398 914.207 159.249C914.223 157.873 914.242 156.498 914.261 155.122C914.308 151.535 914.338 147.948 914.365 144.36C914.395 140.686 914.441 137.013 914.486 133.339C914.573 126.155 914.633 118.972 914.695 111.788H941.695V215.788H914.695L913.695 204.788L909.945 208.538C900.21 217.05 889.101 217.734 876.707 216.969C866.938 216.094 860.061 211.551 853.445 204.538C847.303 197.007 845.565 187.894 845.582 178.428C845.581 177.705 845.581 176.983 845.581 176.238C845.581 173.863 845.589 171.488 845.597 169.112C845.599 167.46 845.6 165.808 845.601 164.156C845.605 159.818 845.615 155.48 845.626 151.142C845.637 146.711 845.641 142.279 845.646 137.849C845.657 129.162 845.674 120.475 845.695 111.788H872.695C872.699 113.765 872.703 115.743 872.708 117.78Z" fill="#45C380"/>
<path d="M470.723 116.903C470.757 123.593 470.812 130.282 470.878 136.972C470.918 141.025 470.951 145.078 470.966 149.132C470.982 153.048 471.015 156.965 471.063 160.881C471.078 162.37 471.086 163.859 471.086 165.349C470.993 177.813 470.993 177.813 477.142 188.328C482.312 192.979 487.175 193.141 493.871 193.069C499.336 192.525 503.118 190.322 507.007 186.538C512.111 178.22 512.164 170.55 512.207 161.007C512.223 159.583 512.242 158.16 512.261 156.736C512.308 153.015 512.339 149.293 512.365 145.571C512.395 141.763 512.441 137.955 512.486 134.147C512.572 126.694 512.638 119.241 512.695 111.788H539.695V215.788H512.695L511.695 204.788L509.972 206.433C499.622 216.022 490.252 217.365 476.519 217.132C467.984 216.732 460.319 213.361 454.148 207.429C443.978 195.947 443.106 181.921 443.304 167.331C443.312 165.691 443.318 164.05 443.322 162.409C443.337 158.136 443.376 153.864 443.42 149.592C443.462 145.214 443.479 140.836 443.5 136.458C443.542 127.901 443.612 119.345 443.695 110.788H470.695L470.723 116.903Z" fill="#45C380"/>
<path d="M757.695 121.788L762.695 116.788C769.261 110.415 777.394 108.539 786.32 108.413C797.587 108.766 807.831 111.072 816.445 118.851C824.389 127.452 827.962 138.889 827.922 150.397C827.923 151.111 827.922 151.824 827.922 152.559C827.921 154.885 827.906 157.212 827.89 159.538C827.886 161.163 827.883 162.789 827.881 164.414C827.874 168.669 827.855 172.923 827.833 177.178C827.812 181.528 827.803 185.879 827.792 190.229C827.771 198.749 827.736 207.269 827.695 215.788H800.695L800.667 209.797C800.631 203.231 800.577 196.664 800.511 190.099C800.472 186.122 800.44 182.145 800.424 178.168C800.409 174.323 800.374 170.478 800.327 166.633C800.312 165.173 800.304 163.714 800.303 162.254C800.292 152.819 800.164 143.492 793.32 136.288C786.367 132.315 779.251 131.74 771.417 133.218C766.098 134.872 762.583 138.052 759.695 142.788C757.971 147.19 757.43 150.905 757.376 155.62C757.366 156.274 757.356 156.929 757.345 157.603C757.315 159.745 757.298 161.888 757.281 164.03C757.262 165.524 757.243 167.017 757.222 168.511C757.171 172.427 757.132 176.343 757.094 180.259C757.054 184.261 757.003 188.263 756.953 192.265C756.856 200.106 756.773 207.947 756.695 215.788H728.695V68.7881H756.695L757.695 121.788Z" fill="#45C380"/>
</svg>
