<svg width="297" height="301" viewBox="0 0 297 301" fill="none" xmlns="http://www.w3.org/2000/svg">
<path d="M178.113 78.2608C187.289 76.5811 195.631 76.9633 203.695 81.7881L206.883 83.6006C214.147 89.2505 219.237 96.6117 220.695 105.788C221.608 117.22 219.17 126.937 211.695 135.788C205.22 142.164 196.61 145.939 187.508 146.163C178.767 145.749 170.641 143.275 164.008 137.413L161.695 134.788L159.07 132.038C152.522 123.796 152.564 112.845 153.695 102.788C154.561 99.3902 155.806 96.7267 157.695 93.7881L158.758 91.9092C163.055 85.0005 170.393 80.5188 178.113 78.2608Z" fill="#45C380"/>
<path fill-rule="evenodd" clip-rule="evenodd" d="M46.57 42.7569C99.6061 -12.9305 188.611 -13.2202 245.293 36.0459C247.787 38.2657 250.248 40.5161 252.695 42.7881L254.492 44.4209C272.276 61.2734 284.009 83.9687 291.07 107.163C291.428 108.338 291.427 108.339 291.793 109.537C295.272 121.582 296.067 133.276 296.065 145.74C296.07 148.323 296.106 150.903 296.144 153.485C296.309 177.778 289.323 200.59 277.695 221.788L276.168 224.585C269.5 236.184 260.87 246.144 251.695 255.788L249.816 257.862C227.577 281.594 192.262 298.606 159.665 299.909C144.779 300.337 130.25 300.13 115.695 296.788L113.604 296.316C96.8051 292.352 79.6671 284.923 65.695 274.788L62.8708 272.815C49.5543 263.224 38.2164 252.153 28.695 238.788L27.5134 237.147C4.66307 204.934 -4.16458 164.563 1.82004 125.601C4.24905 111.653 9.34655 98.3927 15.695 85.7881L17.4294 82.2178C24.3877 68.2574 33.9347 56.0376 44.695 44.7881L46.57 42.7569ZM140.726 192.72C107.888 174.787 64.5193 164.925 27.695 174.788C28.0589 180.83 28.9159 186.329 30.864 192.066C31.1677 192.907 31.4628 193.723 31.7575 194.538C34.4139 201.957 37.4247 208.759 41.5466 215.495L43.695 218.788C44.836 220.56 45.9854 222.325 47.1579 224.076C65.6273 250.83 95.0458 269.141 126.831 275.194C158.382 280.473 190.365 273.975 216.695 255.788C213.143 249.97 209.246 244.98 204.429 240.156C203.269 239.024 203.269 239.023 202.133 237.913C195.498 231.378 188.818 224.966 181.502 219.196C180.589 218.485 180.589 218.485 179.695 217.788C169.275 209.621 158.738 202.191 147.008 196.022C144.905 194.936 142.806 193.848 140.726 192.72ZM150.133 23.3506C114.055 23.3342 81.9106 38.2606 57.695 64.7881C36.7759 88.0971 23.0158 120.069 24.695 151.788C27.3757 151.865 29.8497 151.764 32.5056 151.361C39.5881 150.086 46.4475 149.514 53.6413 149.459C55.5932 149.468 55.594 149.467 57.5075 149.476C111.877 149.624 159.674 171.192 201.163 205.518C201.684 205.95 202.19 206.369 202.695 206.788C212.625 214.921 221.929 224.14 229.945 234.163C231.152 235.738 232.389 237.293 233.695 238.788H235.695C252.045 223.495 263.498 202.269 268.945 180.726C276.684 148.074 273.455 113.552 255.77 84.5147C255.405 83.9278 255.05 83.3578 254.695 82.7881C239.551 58.2817 215.955 39.4413 188.976 29.5987C188.201 29.323 187.448 29.0557 186.695 28.7881C175.312 24.6922 164.312 23.3807 152.264 23.3477C151.54 23.3485 150.836 23.3499 150.133 23.3506Z" fill="#45C380"/>
</svg>
